<svg width="23" height="23" viewBox="0 0 23 23" fill="none" xmlns="http://www.w3.org/2000/svg">
<path d="M5.61607 15.3139C5.28732 15.0247 4.87528 14.8655 4.45588 14.8655C3.88591 14.8655 3.35513 15.1474 2.99963 15.639C2.68878 16.0694 2.54804 16.6078 2.60351 17.1549C2.65906 17.7033 2.90481 18.1945 3.29541 18.5381C3.62416 18.8273 4.03606 18.9866 4.45539 18.9866C5.02579 18.9866 5.55663 18.7041 5.91185 18.212C6.22242 17.7824 6.36302 17.2446 6.30775 16.6977C6.25235 16.1493 6.00674 15.6578 5.61607 15.3139ZM5.25003 17.6198C5.05671 17.8878 4.76702 18.0415 4.45539 18.0415C4.22308 18.0415 4.004 17.9568 3.82201 17.7967C3.61036 17.6105 3.47733 17.345 3.44726 17.049C3.4174 16.7542 3.4934 16.4637 3.66117 16.2315C3.85456 15.9641 4.14425 15.8106 4.45588 15.8106C4.6884 15.8106 4.90755 15.8953 5.08947 16.0553C5.30104 16.2415 5.434 16.5072 5.46394 16.8034C5.49373 17.0979 5.41787 17.3878 5.25003 17.6198Z" fill="#090909"/>
<path d="M13.5292 8.95051C13.8093 8.95051 14.0801 8.88222 14.3348 8.74714C14.785 8.50739 15.1231 8.08798 15.2868 7.5661C15.4496 7.04753 15.4203 6.48949 15.2045 5.99526C14.8958 5.28687 14.2364 4.8291 13.5248 4.8291C13.2442 4.8291 12.9728 4.89763 12.7182 5.03286C12.2682 5.27183 11.9298 5.69092 11.7659 6.21296C11.6028 6.73193 11.632 7.29004 11.8482 7.78451C12.1579 8.49282 12.8178 8.95051 13.5292 8.95051ZM12.5673 6.52494C12.6561 6.24257 12.8395 6.01558 13.0837 5.88586C13.2233 5.81182 13.3716 5.77425 13.5247 5.77425C13.9133 5.77425 14.2727 6.02291 14.4406 6.40813C14.557 6.67467 14.5728 6.97514 14.4852 7.25444C14.3965 7.53696 14.2129 7.76427 13.9689 7.89422C13.8298 7.96803 13.6819 8.00536 13.5292 8.00536C13.1403 8.00536 12.7801 7.75631 12.6116 7.37093C12.4953 7.10479 12.4796 6.80439 12.5673 6.52494Z" fill="#090909"/>
<path d="M8.57753 6.73446C8.7141 6.7688 8.85385 6.78621 8.99289 6.78621C9.86693 6.78621 10.6137 6.12823 10.809 5.1852C10.9187 4.65048 10.8343 4.10001 10.5715 3.635C10.3065 3.16636 9.89233 2.8406 9.40564 2.71789C9.26851 2.68323 9.12819 2.66559 8.98851 2.66559C8.11504 2.66559 7.36908 3.32428 7.17442 4.26715C7.06375 4.80147 7.1476 5.35202 7.41047 5.81735C7.67568 6.28662 8.09027 6.61238 8.57753 6.73446ZM8.00196 4.47917C8.10747 3.96793 8.51321 3.61082 8.98851 3.61082C9.06486 3.61082 9.14192 3.62051 9.2177 3.63964C9.48319 3.70659 9.70871 3.88373 9.85278 4.13845C9.99472 4.38946 10.0403 4.6864 9.98128 4.97372C9.87719 5.47631 9.46147 5.84106 8.99282 5.84106C8.91668 5.84106 8.83991 5.83145 8.76434 5.81247C8.49877 5.74591 8.27326 5.56893 8.12926 5.31421C7.9876 5.06336 7.94238 4.76689 8.00196 4.47917Z" fill="#090909"/>
<path d="M5.47359 8.50128C5.86376 8.15717 6.10909 7.66561 6.16456 7.11719C6.21983 6.57042 6.07951 6.03263 5.7688 5.60219C5.41273 5.11079 4.88153 4.82898 4.31156 4.82898C3.89258 4.82898 3.48097 4.98776 3.15215 5.27643C2.7619 5.61952 2.51643 6.11029 2.46075 6.65832C2.40513 7.2058 2.5458 7.74453 2.85708 8.17568C3.21286 8.66763 3.74413 8.94984 4.31474 8.94984C4.73407 8.94976 5.14568 8.7905 5.47359 8.50128ZM3.51883 7.58315C3.3507 7.35033 3.27463 7.05954 3.30464 6.76433C3.33464 6.46874 3.46753 6.20362 3.67839 6.01814C3.86032 5.85841 4.07932 5.77397 4.31163 5.77397C4.62354 5.77397 4.91387 5.92756 5.1074 6.19464C5.27475 6.42668 5.3506 6.71676 5.32081 7.01141C5.29088 7.30787 5.15785 7.57393 4.94635 7.76044C4.76527 7.9201 4.54684 8.00453 4.31481 8.00453C4.00255 8.00461 3.71243 7.85086 3.51883 7.58315Z" fill="#090909"/>
<path d="M22.8376 3.68798C22.7642 3.60559 22.6333 3.50737 22.4268 3.50737C22.1845 3.50737 21.5411 3.50737 17.6334 7.20858C17.5549 7.28294 17.4756 7.35831 17.3961 7.43424C16.6979 5.40697 15.4712 3.59961 13.8905 2.29231C12.078 0.793375 9.91984 0.0006301 7.64942 0C7.64871 0 7.64765 0 7.64765 0C6.11541 0 4.25285 0.595918 2.78662 1.55548C0.989303 2.73156 -0.000353708 4.30445 9.48305e-08 5.98422C0.000566179 8.0122 1.02815 8.86047 1.85385 9.542C2.52714 10.0978 3.05891 10.5368 3.05919 11.4988C3.0594 12.4607 2.52792 12.8993 1.85499 13.4545C1.02957 14.1357 0.00219367 14.9835 0.00275975 17.0117C0.00318432 18.6912 0.993478 20.2645 2.79115 21.4416C4.25844 22.4024 6.12199 22.9995 7.65452 23C7.65558 23 7.6565 23 7.65749 23C10.4387 23 13.0533 21.8051 15.0197 19.6353C16.9611 17.4932 18.0408 14.6538 18.0692 11.6282C18.7284 10.7932 19.367 9.9633 19.95 9.18127C20.9474 7.84341 21.7144 6.73947 22.2296 5.90026C22.9122 4.78868 23.2111 4.10691 22.8376 3.68798ZM14.422 18.964C12.6155 20.9574 10.2135 22.0548 7.65756 22.0548C7.65678 22.0548 7.65565 22.0548 7.65487 22.0548C4.91594 22.054 0.852664 19.9359 0.851886 17.0114C0.851461 15.4592 1.58454 14.8542 2.36071 14.2137C3.08622 13.615 3.90853 12.9364 3.90824 11.4985C3.90782 10.0608 3.0853 9.3818 2.35958 8.78281C1.58305 8.14176 0.849551 7.53631 0.849126 5.98398C0.848772 4.18812 2.33248 2.94903 3.21698 2.3702C4.54006 1.50436 6.279 0.945072 7.64765 0.945072H7.64914C9.73594 0.945702 11.7191 1.67394 13.3841 3.05087C14.9198 4.32091 16.092 6.10378 16.7095 8.09553C14.8679 9.88533 12.8737 11.9489 11.3886 13.6073C8.92198 13.9627 8.58594 15.7925 8.34026 17.1368C8.13109 18.2813 7.9953 18.8347 7.20158 18.9056C7.006 18.9231 6.84672 19.0874 6.81622 19.3031C6.78565 19.5188 6.89186 19.7297 7.07315 19.8133C7.12417 19.8367 8.33813 20.3889 9.75646 20.3889H9.75695C10.7453 20.3889 11.5932 20.1223 12.2769 19.5964C13.1194 18.9483 13.6906 17.9208 13.9777 16.543C14.948 15.4502 16.0568 14.1325 17.1531 12.7752C16.9008 15.1121 15.9534 17.2743 14.422 18.964ZM13.1247 16.4535C12.6748 18.438 11.5427 19.4439 9.75688 19.4439H9.75646C9.28555 19.4439 8.83459 19.3724 8.45546 19.2832C8.90832 18.7691 9.04977 17.9955 9.17226 17.3253C9.40556 16.0487 9.62619 14.8406 11.4311 14.5536L13.1247 16.4535ZM18.9876 8.98996C17.3046 11.2218 15.2674 13.7282 13.5903 15.6339L13.3307 15.3426L12.1852 14.0575C13.7057 12.3727 15.6563 10.3639 17.4761 8.60583C17.6883 8.40089 17.8991 8.19855 18.1068 8.00133C20.2188 5.99643 21.3257 5.1239 21.8903 4.74418C21.5531 5.37641 20.7764 6.61779 18.9876 8.98996Z" fill="#090909"/>
</svg>
