<svg width="25" height="25" viewBox="0 0 25 25" fill="none" xmlns="http://www.w3.org/2000/svg">
<g clip-path="url(#clip0)">
<path d="M3.125 20.3125C2.26345 20.3125 1.5625 21.0135 1.5625 21.875C1.5625 22.7365 2.26345 23.4375 3.125 23.4375C3.98655 23.4375 4.6875 22.7365 4.6875 21.875C4.6875 21.0135 3.98655 20.3125 3.125 20.3125ZM3.125 22.6562C2.69423 22.6562 2.34375 22.3058 2.34375 21.875C2.34375 21.4442 2.69423 21.0938 3.125 21.0938C3.55577 21.0938 3.90625 21.4442 3.90625 21.875C3.90625 22.3058 3.55577 22.6562 3.125 22.6562Z" fill="black"/>
<path d="M24.6566 7.30775L21.141 3.79213C20.7001 3.35127 19.9932 3.3372 19.5337 3.74727L19.0262 3.23986C18.8995 3.11316 18.7028 3.08903 18.549 3.18111L17.9358 3.54909L18.3037 2.93583C18.3959 2.78209 18.3717 2.58535 18.245 2.45861L15.9012 0.114858C15.7486 -0.0376348 15.5014 -0.0376348 15.3488 0.114858L9.76562 5.698L9.65123 5.58361C9.49864 5.43111 9.25136 5.43111 9.09877 5.58361L7.53627 7.14611L6.59933 8.08304C6.11701 8.56541 5.92017 9.27609 6.08563 9.93784L7.17959 14.3138C7.29532 14.7766 7.12194 15.2585 6.7379 15.5414L1.21155 19.6134C0.4529 20.1725 0 21.0688 0 22.0112V22.0221C0 23.6644 1.3361 25.0005 2.97837 25.0005C3.92857 25.0005 4.82936 24.5415 5.38793 23.7727L9.41997 18.223C9.68757 17.8546 10.1492 17.6737 10.5957 17.7622L14.7307 18.581C15.3713 18.7077 16.0294 18.5078 16.4912 18.0461L17.4637 17.0736L19.0262 15.5111C19.1788 15.3585 19.1788 15.1112 19.0262 14.9586L18.9118 14.8442L20.3125 13.4436V16.4067C20.3125 16.8234 20.475 17.2157 20.7705 17.5118C21.066 17.8068 21.4583 17.9692 21.875 17.9692C22.7365 17.9692 23.4375 17.2683 23.4375 16.4067V14.3873C23.5614 14.4309 23.693 14.4536 23.8281 14.4536C24.4743 14.4536 25 13.9279 25 13.2817V8.13669C25 7.8236 24.8781 7.5292 24.6566 7.30775ZM15.9387 17.4937C15.6617 17.7707 15.2668 17.8907 14.8825 17.8146L10.7474 16.9958C10.0031 16.8485 9.2339 17.1499 8.78787 17.7638L4.75588 23.3135C4.3438 23.8806 3.67932 24.2192 2.97832 24.2192C1.76687 24.2192 0.78125 23.2336 0.78125 22.0221V22.0112C0.78125 21.316 1.11537 20.6548 1.67499 20.2424L7.20129 16.1704C7.8414 15.6988 8.13036 14.8956 7.93748 14.1243L6.84352 9.74835C6.74429 9.35129 6.86235 8.9249 7.15179 8.63551L7.8125 7.97475L16.6351 16.7973L15.9387 17.4937ZM17.1875 16.2449L8.36496 7.42234L9.375 6.41225L18.1976 15.2348L17.1875 16.2449ZM18.3594 14.2917L10.3181 6.25046L15.625 0.943505L17.4769 2.7954L16.4619 4.48698C16.3697 4.64071 16.3939 4.83745 16.5206 4.9642C16.6474 5.09089 16.8442 5.11511 16.9979 5.02294L18.6894 4.00795L18.9788 4.29733L17.5309 5.74525C17.3094 5.9667 17.1875 6.2611 17.1875 6.57419V11.7192C17.1875 12.0318 17.3091 12.326 17.5309 12.5487C17.7526 12.7695 18.0468 12.8911 18.3594 12.8911C19.0055 12.8911 19.5312 12.3654 19.5312 11.7192V11.3286C19.5312 11.2241 19.572 11.1257 19.6448 11.0525C19.719 10.9787 19.8174 10.938 19.9219 10.938C20.1373 10.938 20.3125 11.1132 20.3125 11.3286V12.3386L18.3594 14.2917ZM24.2188 13.2817C24.2188 13.4971 24.0435 13.6723 23.8281 13.6723C23.7236 13.6723 23.6252 13.6316 23.5521 13.5588C23.4782 13.4846 23.4375 13.3862 23.4375 13.2817C23.4375 13.066 23.2626 12.8911 23.0469 12.8911C22.8312 12.8911 22.6562 13.066 22.6562 13.2817V16.4067C22.6562 16.8375 22.3058 17.188 21.875 17.188C21.6667 17.188 21.4704 17.1066 21.3229 16.9594C21.1751 16.8113 21.0938 16.615 21.0938 16.4067V11.3286C21.0938 10.6824 20.568 10.1567 19.9219 10.1567C19.6093 10.1567 19.3151 10.2783 19.0924 10.5001C18.8716 10.7218 18.75 11.016 18.75 11.3286V11.7192C18.75 11.9346 18.5748 12.1098 18.3594 12.1098C18.2549 12.1098 18.1565 12.0691 18.0833 11.9963C18.0095 11.9221 17.9688 11.8237 17.9688 11.7192V6.57419C17.9688 6.46976 18.0094 6.37158 18.0833 6.29772L20.0365 4.34459C20.1887 4.19229 20.4363 4.19229 20.5885 4.34459L24.1042 7.86022C24.1781 7.93408 24.2188 8.03226 24.2188 8.13669V13.2817Z" fill="black"/>
<path d="M21.875 18.75C21.0135 18.75 20.3125 19.451 20.3125 20.3125C20.3125 21.174 21.0135 21.875 21.875 21.875C22.7365 21.875 23.4375 21.174 23.4375 20.3125C23.4375 19.451 22.7365 18.75 21.875 18.75ZM21.875 21.0938C21.4442 21.0938 21.0938 20.7433 21.0938 20.3125C21.0938 19.8817 21.4442 19.5312 21.875 19.5312C22.3058 19.5312 22.6562 19.8817 22.6562 20.3125C22.6562 20.7433 22.3058 21.0938 21.875 21.0938Z" fill="black"/>
</g>
<defs>
<clipPath id="clip0">
<rect width="25" height="25" fill="white"/>
</clipPath>
</defs>
</svg>
