<svg width="24" height="24" viewBox="0 0 24 24" fill="none" xmlns="http://www.w3.org/2000/svg">
<g clip-path="url(#clip0)">
<path d="M23.6575 10.427L23.6538 10.4142C23.6162 10.2587 23.5009 10.131 23.3458 10.0796C23.2883 10.0604 21.9134 9.61315 19.9503 9.75091C18.1431 9.87766 15.4718 10.5459 13.0078 13.0099C10.5438 15.4739 9.87557 18.1452 9.74891 19.9523C9.61129 21.9154 10.0586 23.2902 10.0777 23.3477C10.1243 23.4882 10.2345 23.5983 10.3749 23.6449C10.4248 23.6615 11.4649 24 13.0202 24C13.2587 24 13.5094 23.992 13.7703 23.9737C15.5774 23.847 18.2487 23.1788 20.7127 20.7149C25.0725 16.355 23.9306 11.38 23.6575 10.427ZM18.8435 10.8395C19.2141 10.768 19.5915 10.7175 19.9757 10.689C20.9252 10.6185 21.7295 10.7008 22.2773 10.7941C22.2539 10.8101 22.2315 10.8282 22.2107 10.849L18.8435 14.2162V10.8395ZM17.906 11.071V15.1537L14.7641 18.2957V12.755C14.7641 12.7397 14.7632 12.7246 14.7618 12.7096C15.7341 11.9568 16.7847 11.4095 17.906 11.071ZM10.6841 20.0178C10.8521 17.6213 11.8569 15.4865 13.6707 13.6728C13.7224 13.6211 13.7743 13.5703 13.8266 13.5199V19.2123C13.8266 19.219 13.8273 19.2255 13.8275 19.2321L10.7894 22.2702C10.6982 21.7325 10.6188 20.949 10.6841 20.0178ZM13.7449 23.0356C12.8012 23.1056 12.0009 23.0247 11.4533 22.9321L12.9176 21.4678C12.9192 21.4678 12.9207 21.4681 12.9223 21.4681H18.3267C16.9388 22.3863 15.405 22.9123 13.7449 23.0356ZM20.0498 20.0519C19.8834 20.2183 19.7142 20.3778 19.5424 20.5306H13.8549L16.5755 17.81H21.7844C21.3535 18.5576 20.7879 19.3138 20.0498 20.0519ZM22.2598 16.8725H17.5129L22.8736 11.5119C22.8936 11.4918 22.911 11.4703 22.9266 11.4479C23.121 12.5788 23.2438 14.6348 22.2598 16.8725Z" fill="#090909"/>
<path d="M10.9916 13.01C8.52754 10.546 5.85619 9.87776 4.04902 9.75101C2.08604 9.61333 0.711054 10.0606 0.653492 10.0796C0.49843 10.1311 0.383117 10.2588 0.345524 10.4143L0.341868 10.4271C0.0686806 11.3802 -1.07315 16.3552 3.28664 20.715C4.66983 22.0982 6.25406 23.0596 7.99523 23.5725C8.03943 23.5856 8.08406 23.5918 8.12793 23.5918C8.33043 23.5918 8.51723 23.4595 8.57737 23.2554C8.65054 23.007 8.50851 22.7464 8.26021 22.6733C6.67106 22.2051 5.22075 21.3232 3.9496 20.0521C2.84161 18.9441 2.12129 17.7955 1.66402 16.6959H6.30961L8.57207 18.9584C8.66362 19.0499 8.78357 19.0957 8.90352 19.0957C9.02348 19.0957 9.14348 19.0499 9.23498 18.9584C9.41802 18.7753 9.41802 18.4785 9.23498 18.2954L8.71818 17.7787V12.3317C9.27965 12.714 9.81693 13.1613 10.3286 13.6729C10.5117 13.856 10.8085 13.856 10.9916 13.6729C11.1747 13.4899 11.1746 13.1931 10.9916 13.01ZM3.98344 10.6863C4.1887 10.7006 4.39195 10.7216 4.59333 10.7483V13.6539L1.7618 10.8223C1.75102 10.8116 1.73972 10.8015 1.72819 10.792C2.26604 10.7006 3.05077 10.6208 3.98344 10.6863ZM1.33116 15.7584V15.7584C0.800679 13.9714 0.910601 12.3957 1.07152 11.455C1.08019 11.4653 1.08915 11.4755 1.09885 11.4853L5.37201 15.7585H1.33116V15.7584ZM7.78073 16.8413L5.53078 14.5913V10.9195C6.31406 11.1038 7.06481 11.3862 7.78073 11.7657V16.8413Z" fill="#090909"/>
<path d="M8.85353 21.0751C7.94772 20.8083 7.08775 20.3805 6.29749 19.8039C6.08833 19.6513 5.79513 19.6971 5.64251 19.9062C5.48988 20.1153 5.53573 20.4086 5.74484 20.5612C6.62233 21.2016 7.5791 21.6771 8.58855 21.9744C8.63275 21.9875 8.67738 21.9936 8.72125 21.9936C8.92375 21.9936 9.11055 21.8614 9.17069 21.6573C9.24386 21.4089 9.10188 21.1483 8.85353 21.0751Z" fill="#090909"/>
<path d="M5.16972 18.8354L5.16808 18.8338C4.98504 18.6508 4.68911 18.6516 4.50597 18.8346C4.32293 19.0177 4.32377 19.3153 4.50682 19.4984C4.59836 19.5899 4.71832 19.6357 4.83827 19.6357C4.95822 19.6357 5.07822 19.5899 5.16972 19.4984C5.35277 19.3153 5.35277 19.0185 5.16972 18.8354Z" fill="#090909"/>
<path d="M6.00717 5.95204H3.46904V3.91303H5.21747C5.47636 3.91303 5.68622 3.70317 5.68622 3.44428C5.68622 3.18539 5.47636 2.97553 5.21747 2.97553H3.46904V0.936522H6.00713C6.26602 0.936522 6.47588 0.726663 6.47588 0.467773C6.47588 0.208882 6.26602 -0.000976562 6.00713 -0.000976562H3.00033C2.74144 -0.000976562 2.53159 0.208882 2.53159 0.467773V6.42075C2.53159 6.67964 2.74144 6.88949 3.00033 6.88949H6.00717C6.26606 6.88949 6.47592 6.67964 6.47592 6.42075C6.47592 6.16186 6.26606 5.95204 6.00717 5.95204Z" fill="#090909"/>
<path d="M18.0001 0C16.1004 0 14.5549 1.54551 14.5549 3.44521C14.5549 5.34491 16.1004 6.89043 18.0001 6.89043C19.8998 6.89043 21.4453 5.34491 21.4453 3.44521C21.4453 1.54551 19.8998 0 18.0001 0ZM18.0001 5.95297C16.6173 5.95297 15.4923 4.82802 15.4923 3.44521C15.4923 2.0624 16.6173 0.937452 18.0001 0.937452C19.3829 0.937452 20.5078 2.0624 20.5078 3.44521C20.5078 4.82802 19.3828 5.95297 18.0001 5.95297Z" fill="#090909"/>
<path d="M12.7279 5.21892C11.7502 6.19669 10.1592 6.19669 9.18144 5.21892C8.20367 4.24121 8.20367 2.65023 9.18144 1.67246C10.1592 0.694699 11.7501 0.694699 12.7279 1.67246C12.911 1.85551 13.2078 1.85551 13.3909 1.67246C13.5739 1.48942 13.5739 1.1926 13.3909 1.00951C12.0476 -0.333737 9.86188 -0.333737 8.51858 1.00951C7.17528 2.35281 7.17528 4.53854 8.51858 5.88178C9.1902 6.55345 10.0724 6.88927 10.9547 6.88927C11.837 6.88927 12.7192 6.55341 13.3909 5.88183C13.5739 5.69878 13.5739 5.40197 13.3909 5.21888C13.2078 5.03588 12.911 5.03588 12.7279 5.21892Z" fill="#090909"/>
<path d="M12.0031 7.98541C11.7442 7.98541 11.5343 8.19527 11.5343 8.45416V9.77974C11.5343 10.0386 11.7442 10.2485 12.0031 10.2485C12.262 10.2485 12.4718 10.0386 12.4718 9.77974V8.45416C12.4718 8.19527 12.2619 7.98541 12.0031 7.98541Z" fill="#090909"/>
<path d="M14.7386 9.27695C14.5555 9.09386 14.2588 9.0939 14.0757 9.27695L13.1199 10.2327C12.9369 10.4158 12.9368 10.7126 13.1199 10.8956C13.2115 10.9872 13.3314 11.0329 13.4514 11.0329C13.5713 11.0329 13.6913 10.9871 13.7828 10.8956L14.7386 9.93986C14.9217 9.75676 14.9217 9.45995 14.7386 9.27695Z" fill="#090909"/>
<path d="M10.8818 10.2187L9.92439 9.26131C9.74129 9.07821 9.44453 9.07831 9.26148 9.26131C9.07843 9.44435 9.07838 9.74117 9.26148 9.92421L10.2189 10.8816C10.3104 10.9732 10.4304 11.0189 10.5503 11.0189C10.6703 11.0189 10.7903 10.9731 10.8818 10.8816C11.0648 10.6986 11.0649 10.4018 10.8818 10.2187Z" fill="#090909"/>
</g>
<defs>
<clipPath id="clip0">
<rect width="24" height="24" fill="white"/>
</clipPath>
</defs>
</svg>
